<svg id="Capa_1" enable-background="new 0 0 512.062 512.062" height="512" viewBox="0 0 512.062 512.062" width="512" xmlns="http://www.w3.org/2000/svg"><g id="XMLID_1775_"><g id="XMLID_2524_"><g id="XMLID_2525_"><path d="m476.829 502.062c0-41.79-33.877-75.667-75.667-75.667h-95.118v-63.667h-100.027v63.667h-95.118c-41.79 0-75.667 33.877-75.667 75.667z" fill="#ffd4be"/></g></g><g id="XMLID_2305_"><path d="m371.254 181.208v76.63c0 63.636-51.587 115.223-115.223 115.223-63.636 0-115.223-51.587-115.223-115.223v-76.63l115.221-50.503z" fill="#ffd4be"/></g><g id="XMLID_2292_"><circle id="XMLID_336_" cx="373.379" cy="314.567" fill="#ffcb7c" r="71.506"/></g><g id="XMLID_1736_"><g id="XMLID_1739_"><path id="XMLID_334_" d="m245.058 11.911-88.753 51.247c-39.977 23.081-53.675 74.2-30.594 114.177 6.842 11.851 21.996 15.912 33.847 9.069l186.86-107.888z" fill="#91def5"/></g><g id="XMLID_2014_"><path id="XMLID_329_" d="m277.221 17.815 78.536 45.343c39.977 23.081 53.675 74.2 30.594 114.177-6.842 11.851-21.996 15.911-33.847 9.069l-133.407-77.022c-34.021-19.642-35.425-68.24-2.594-89.813 18.28-12.013 41.773-12.691 60.718-1.754z" fill="#b0e7f8"/></g></g><g id="XMLID_345_"><path id="XMLID_1638_" d="m62.234 431.552c-23.169 16.018-37.001 42.376-37.001 70.51 0 5.523 4.478 10 10 10s10-4.477 10-10c0-21.567 10.607-41.775 28.374-54.059 4.543-3.141 5.68-9.37 2.539-13.912-3.142-4.544-9.369-5.681-13.912-2.539z"/><path id="XMLID_1687_" d="m401.163 416.395h-85.118v-43.962c14.737 14.603 34.998 23.64 57.334 23.64 44.942 0 81.506-36.563 81.506-81.506 0-42.285-32.37-77.142-73.63-81.118v-37.845c5.556-2.954 10.384-7.43 13.756-13.269 12.499-21.648 15.819-46.867 9.35-71.013s-21.955-44.326-43.604-56.825l-78.537-45.342c-22.354-12.907-49.64-12.117-71.21 2.058-8.008 5.262-14.535 12.096-19.294 19.951l-40.411 23.334c-21.648 12.499-37.134 32.679-43.604 56.825-6.47 24.145-3.149 49.365 9.35 71.013 3.372 5.84 8.2 10.316 13.756 13.27v62.234c0 47.318 26.383 88.587 65.21 109.878v48.679h-40.117c-5.522 0-10 4.477-10 10s4.478 10 10 10h50.117c5.522 0 10-4.477 10-10v-49.889c12.57 4.25 26.027 6.556 40.014 6.556 13.687 0 27.194-2.247 40.014-6.563v49.896c0 5.523 4.478 10 10 10h95.118c36.208 0 65.666 29.458 65.666 65.667 0 5.523 4.478 10 10 10s10-4.477 10-10c0-47.239-38.43-85.669-85.666-85.669zm33.721-101.828c0 33.915-27.592 61.506-61.506 61.506s-61.506-27.591-61.506-61.506c0-33.914 27.592-61.505 61.506-61.505s61.506 27.591 61.506 61.505zm-212.891-286.64c8.008-5.262 17.131-7.908 26.276-7.908 8.231 0 16.482 2.145 23.951 6.457l78.536 45.343c17.021 9.828 29.197 25.695 34.284 44.681 5.088 18.985 2.477 38.815-7.351 55.836-4.075 7.058-13.131 9.483-20.188 5.41l-133.406-77.022c-12.95-7.477-20.939-20.864-21.371-35.811-.431-14.949 6.773-28.775 19.269-36.986zm-94.972 88.572c5.087-18.985 17.263-34.853 34.284-44.681l21.542-12.439c-.134 2.019-.173 4.057-.114 6.11.634 21.935 12.357 41.581 31.362 52.553l21.933 12.663-81.47 47.039c-7.056 4.074-16.112 1.647-20.188-5.409-9.826-17.021-12.437-36.851-7.349-55.836zm23.786 141.339v-58.323c4.71-.488 9.394-1.934 13.752-4.451l91.469-52.813 91.475 52.813c4.36 2.517 9.042 3.963 13.752 4.451v34.452c-39.212 5.874-69.382 39.776-69.382 80.599 0 13.805 3.461 26.812 9.544 38.219-14.097 6.741-29.6 10.275-45.386 10.275-58.021.002-105.224-47.202-105.224-105.222z"/><path id="XMLID_1694_" d="m226.666 211.002c-3.905-3.905-10.235-3.905-14.143 0-4.137 4.137-10.867 4.137-15.004 0-3.906-3.905-10.238-3.905-14.143 0s-3.905 10.237 0 14.142c5.968 5.967 13.806 8.95 21.645 8.95s15.677-2.983 21.645-8.95c3.905-3.905 3.905-10.237 0-14.142z"/><path id="XMLID_1695_" d="m328.685 225.144c3.905-3.905 3.905-10.237 0-14.142s-10.235-3.905-14.143 0c-4.137 4.137-10.867 4.137-15.004 0-3.906-3.905-10.238-3.905-14.143 0s-3.905 10.237 0 14.142c5.968 5.967 13.806 8.95 21.645 8.95s15.677-2.983 21.645-8.95z"/><path id="XMLID_1696_" d="m365.96 284.241c-1.86 1.86-2.93 4.44-2.93 7.07s1.069 5.21 2.93 7.07 4.44 2.93 7.07 2.93 5.21-1.07 7.069-2.93c1.86-1.86 2.931-4.44 2.931-7.07s-1.07-5.21-2.931-7.07c-1.859-1.86-4.43-2.93-7.069-2.93-2.629.001-5.209 1.07-7.07 2.93z"/><path id="XMLID_1701_" d="m350.521 321.312c-2.631 0-5.211 1.07-7.07 2.93-1.86 1.86-2.93 4.44-2.93 7.07s1.069 5.21 2.93 7.07c1.859 1.86 4.439 2.93 7.07 2.93 2.63 0 5.21-1.07 7.069-2.93 1.86-1.86 2.931-4.44 2.931-7.07s-1.07-5.21-2.931-7.07c-1.859-1.861-4.439-2.93-7.069-2.93z"/><path id="XMLID_1703_" d="m396.231 341.312c2.63 0 5.21-1.07 7.069-2.93 1.87-1.86 2.931-4.44 2.931-7.07s-1.061-5.21-2.931-7.07c-1.859-1.86-4.43-2.93-7.069-2.93-2.631 0-5.21 1.07-7.07 2.93s-2.93 4.44-2.93 7.07 1.069 5.21 2.93 7.07 4.439 2.93 7.07 2.93z"/><path id="XMLID_1704_" d="m190.451 260.062c-2.63 0-5.21 1.07-7.07 2.93-1.87 1.86-2.93 4.44-2.93 7.07s1.06 5.21 2.93 7.07c1.86 1.86 4.43 2.93 7.07 2.93 2.63 0 5.21-1.07 7.07-2.93 1.859-1.86 2.93-4.44 2.93-7.07s-1.07-5.21-2.93-7.07c-1.87-1.861-4.44-2.93-7.07-2.93z"/><path id="XMLID_1705_" d="m230.451 260.062c-2.641 0-5.21 1.07-7.07 2.93-1.87 1.86-2.93 4.44-2.93 7.07s1.06 5.21 2.93 7.07c1.86 1.86 4.44 2.93 7.07 2.93s5.2-1.07 7.07-2.93c1.859-1.86 2.93-4.44 2.93-7.07s-1.07-5.21-2.93-7.07c-1.86-1.861-4.44-2.93-7.07-2.93z"/><path id="XMLID_1707_" d="m110.901 416.391c-2.63 0-5.21 1.07-7.07 2.93s-2.93 4.44-2.93 7.07c0 2.64 1.069 5.21 2.93 7.07 1.86 1.87 4.44 2.93 7.07 2.93s5.21-1.06 7.069-2.93c1.86-1.86 2.931-4.44 2.931-7.07s-1.07-5.2-2.931-7.07c-1.859-1.86-4.439-2.93-7.069-2.93z"/></g></g></svg>