<svg id="Layer_1" enable-background="new 0 0 512.006 512.006" height="512" viewBox="0 0 512.006 512.006" width="512" xmlns="http://www.w3.org/2000/svg"><g id="XMLID_1020_"><path id="XMLID_956_" d="m391.039 502.004c-33.441-10.346-56.244-41.269-56.244-76.275v-10.733h-114.481v10.733c0 35.005-22.802 65.928-56.243 76.275z" fill="#f2b394"/><path id="XMLID_1921_" d="m401.483 329.097c48.122-32.565 79.116-83.625 79.116-141.029 0-98.347-90.972-178.072-203.192-178.072s-203.192 79.726-203.192 178.072c0 57.406 30.996 108.467 79.121 141.032z" fill="#a0e5a5"/><path id="XMLID_1919_" d="m416.144 276.197c0 79.601-59.663 146.561-138.737 155.706-79.074-9.145-138.737-76.105-138.737-155.706v-56.091c0-34.357 19.169-65.937 49.792-81.514 55.726-28.346 122.164-28.346 177.89 0 30.623 15.577 49.792 47.157 49.792 81.514z" fill="#f5c6af"/><g id="XMLID_1608_"><path id="XMLID_1607_" d="m116.468 313.042h56v151.786h-56z" fill="#a0c8ff" transform="matrix(.707 .707 -.707 .707 317.332 11.762)"/><path id="XMLID_1606_" d="m52.419 434.984h40v52h-40z" fill="#dfedff" transform="matrix(.707 .707 -.707 .707 347.176 83.811)"/></g><g id="XMLID_537_"><path id="XMLID_562_" d="m417.24 330.04c46.648-35.775 73.36-87.369 73.36-141.971 0-43.172-16.98-85.337-47.814-118.727-30.126-32.624-72.219-55.634-118.522-64.791-5.423-1.072-10.679 2.452-11.75 7.87s2.452 10.679 7.87 11.75c87.041 17.212 150.216 86.141 150.216 163.897 0 40.037-16.38 78.367-45.701 108.514.818-6.689 1.245-13.492 1.245-20.385v-56.092c0-7.333-.776-14.527-2.26-21.491 8.735-10.05 15.214-22.036 18.837-34.951 1.492-5.317-1.609-10.838-6.926-12.33-5.319-1.494-10.837 1.608-12.33 6.926-1.712 6.101-4.244 11.93-7.48 17.321-9.429-19.465-25.021-35.689-45.1-45.903-1.022-.52-2.053-1.014-3.081-1.515 6.409-11.643 9.762-24.658 9.762-38.245 0-5.523-4.477-10-10-10s-10 4.477-10 10c0 10.838-2.837 21.19-8.261 30.324-19.974-7.411-40.872-11.639-61.898-12.652v-35.926c0-5.523-4.477-10-10-10s-10 4.477-10 10v35.926c-21.027 1.014-41.924 5.241-61.898 12.652-5.424-9.134-8.261-19.486-8.261-30.324 0-5.523-4.477-10-10-10s-10 4.477-10 10c0 13.587 3.353 26.602 9.762 38.245-1.028.502-2.06.996-3.081 1.515-20.079 10.213-35.671 26.438-45.1 45.902-3.236-5.391-5.768-11.22-7.48-17.321-1.492-5.317-7.012-8.42-12.33-6.926-5.317 1.492-8.418 7.012-6.926 12.33 3.624 12.915 10.102 24.901 18.837 34.951-1.484 6.964-2.26 14.158-2.26 21.491v56.092c0 6.865.424 13.663 1.241 20.383-29.319-30.145-45.696-68.471-45.696-108.511 0-77.856 63.273-146.804 150.45-163.943 5.419-1.065 8.948-6.322 7.883-11.741-1.065-5.418-6.323-8.953-11.741-7.883-46.364 9.115-88.518 32.112-118.698 64.754-30.885 33.405-47.894 75.601-47.894 118.813 0 54.61 26.713 106.201 73.367 141.977 1.007 2.943 2.099 5.864 3.276 8.761l-69.852 69.852-2.829-2.829c-3.905-3.905-10.237-3.905-14.143 0-3.905 3.905-3.905 10.237 0 14.143l8.485 8.485-22.627 22.627-1.414-1.414c-3.905-3.905-10.237-3.905-14.143 0-3.905 3.905-3.905 10.237 0 14.143l45.255 45.255c1.953 1.953 4.512 2.929 7.071 2.929s5.119-.976 7.071-2.929c3.905-3.905 3.905-10.237 0-14.143l-1.414-1.414 22.627-22.627 8.485 8.485c1.953 1.953 4.512 2.929 7.071 2.929s5.119-.976 7.071-2.929c3.905-3.905 3.905-10.237 0-14.143l-2.828-2.828 60.783-60.783c7.763 6.824 16.051 12.854 24.786 18.053v6.062c0 30.804-19.771 57.617-49.199 66.721-5.276 1.632-8.23 7.233-6.598 12.509 1.328 4.292 5.281 7.047 9.55 7.047.979 0 1.975-.145 2.959-.449 18.463-5.712 34.285-16.954 45.755-32.508 10.671-14.471 16.654-31.439 17.438-49.295 14.511 6.146 29.956 10.222 46.039 12.082.382.044.765.066 1.149.066s.767-.022 1.149-.066c16.326-1.888 31.868-6.1 46.324-12.267.75 17.924 6.741 34.958 17.448 49.48 11.47 15.555 27.292 26.796 45.755 32.508.984.305 1.979.449 2.959.449 4.269 0 8.222-2.755 9.55-7.047 1.632-5.276-1.321-10.876-6.598-12.509-29.428-9.104-49.199-35.917-49.199-66.721v-6.292c33.803-20.17 59.644-51.866 72.446-89.398zm-213.451 25.029-93.186 93.186-25.456-25.455 93.186-93.186zm-149.754 110.157 22.627-22.627 14.142 14.142-22.627 22.627zm223.371-43.394c-29.07-3.586-55.734-15.413-77.707-34.388l25.303-25.303c3.905-3.905 3.905-10.237 0-14.143l-12.728-12.728 26.87-26.87c3.905-3.905 3.905-10.237 0-14.143-3.905-3.905-10.237-3.905-14.143 0l-26.87 26.87-12.726-12.727c-3.905-3.904-10.237-3.904-14.143 0l-14.864 14.864c-5.127-15.1-7.729-30.873-7.729-47.067v-56.092c0-30.874 16.985-58.692 44.326-72.601 52.856-26.886 115.966-26.885 168.822 0 27.341 13.908 44.326 41.727 44.326 72.601v56.092c.001 74.153-55.262 136.558-128.737 145.635z"/><path id="XMLID_1070_" d="m305.926 342.118-7.307-5.497c-6.152-4.627-13.968-5.887-21.064-3.665-7.097-2.225-14.913-.962-21.065 3.665l-7.307 5.497c-2.257 1.698-3.691 4.272-3.947 7.085s.69 5.604 2.604 7.681l2.773 3.01c6.915 7.508 16.735 11.814 26.942 11.814s20.027-4.306 26.941-11.813l2.774-3.011c1.914-2.078 2.86-4.868 2.604-7.681s-1.69-5.387-3.948-7.085z"/><path id="XMLID_1074_" d="m367.389 241.21c-3.905-3.905-10.237-3.905-14.142 0-10.46 10.46-27.479 10.459-37.939 0-3.905-3.905-10.237-3.905-14.142 0s-3.905 10.237 0 14.142c9.128 9.128 21.12 13.693 33.111 13.693s23.982-4.564 33.111-13.693c3.906-3.905 3.906-10.237.001-14.142z"/><path id="XMLID_1076_" d="m253.944 241.209c-3.905-3.905-10.237-3.905-14.143 0-10.459 10.46-27.479 10.46-37.938 0-3.905-3.905-10.237-3.905-14.142 0s-3.905 10.237 0 14.142c9.129 9.128 21.12 13.693 33.111 13.693s23.982-4.564 33.111-13.693c3.906-3.904 3.906-10.236.001-14.142z"/><path id="XMLID_1080_" d="m277.533 20c2.63 0 5.21-1.07 7.07-2.93s2.93-4.44 2.93-7.07c0-2.64-1.07-5.21-2.93-7.08-1.86-1.86-4.44-2.92-7.07-2.92s-5.21 1.06-7.07 2.92c-1.86 1.87-2.93 4.44-2.93 7.08 0 2.63 1.07 5.21 2.93 7.07s4.44 2.93 7.07 2.93z"/></g></g></svg>