<?xml version="1.0"?>
<svg xmlns="http://www.w3.org/2000/svg" id="Filled" viewBox="0 0 512 512" width="512" height="512"><ellipse cx="256" cy="224" rx="232" ry="200" style="fill:#67c5e0"/><path d="M344,38.89V40c0,35.61-56,112-88,112-92.78,0-168,51.22-168,144,0,27.51,7.03,55.58,19.22,81.46C56.35,340.78,24,285.65,24,224,24,113.54,127.87,24,256,24A263.8,263.8,0,0,1,344,38.89Z" style="fill:#6ed2f0"/><path d="M424,296c0,92.784-80,192-168,192S88,388.784,88,296s75.216-144,168-144S424,203.216,424,296Z" style="fill:#f7cca9"/><circle cx="152" cy="344" r="16" style="fill:#e9eef2"/><circle cx="360" cy="344" r="16" style="fill:#e9eef2"/><circle cx="256" cy="440" r="16" style="fill:#e9eef2"/><rect x="47.587" y="64.544" width="80" height="32" transform="translate(-29.754 100.288) rotate(-52.153)" style="fill:#757c80"/><path d="M56,32h0A24,24,0,0,1,80,56V80a0,0,0,0,1,0,0H32a0,0,0,0,1,0,0V56A24,24,0,0,1,56,32Z" transform="translate(-22.58 65.862) rotate(-52.153)" style="fill:#4f5659"/><path d="M85.5,109.312l94.757,73.628a15.981,15.981,0,0,0,15.839,2.175l14.339,11.141a16,16,0,0,0,19.634-25.268l-14.339-11.141a15.982,15.982,0,0,0-6.022-14.811L114.947,71.409Z" style="fill:#c3c6c7"/><path d="M232.88,193.44a16,16,0,0,1-22.45,2.82l-14.34-11.14a16,16,0,0,1-15.84-2.18L123.4,138.76l29.45-37.9,56.85,44.18a15.985,15.985,0,0,1,6.03,14.81l14.33,11.14A16,16,0,0,1,232.88,193.44Z" style="fill:#e9eef2"/><circle cx="256" cy="232" r="16" style="fill:#e9eef2"/><path d="M425.272,76.52C380,37.493,319.886,16,256,16c-46.588,0-91.53,11.51-130.364,33.321L104.4,32.823a8,8,0,0,0-11.226,1.409l-4.909,6.317L75.635,30.732A32,32,0,0,0,36.367,81.27L49,91.087,44.093,97.4A8,8,0,0,0,45.5,108.63l6.812,5.293C28.536,146.9,16,184.814,16,224c0,61.363,30.849,118.98,84.743,158.619a230.811,230.811,0,0,0,32.166,49.361C167.557,472.666,212.421,496,256,496s88.443-23.334,123.091-64.02a230.765,230.765,0,0,0,32.329-49.7l.119.162C465.215,342.827,496,285.079,496,224,496,168.214,470.882,115.838,425.272,76.52ZM335.667,44.56C333.6,59.775,322.06,83.019,305.645,104.5,287.583,128.124,267.632,144,256,144a245.327,245.327,0,0,0-34.909,2.464,23.9,23.9,0,0,0-6.478-7.745L126.172,70l3.564-4.587C167.014,43.555,210.65,32,256,32A256.048,256.048,0,0,1,335.667,44.56ZM134.624,137.354l19.634-25.268L204.8,151.353a8.03,8.03,0,0,1,3,7.413,8,8,0,0,0,3.019,7.4l14.338,11.141a8,8,0,1,1-9.817,12.633L201,178.8a8,8,0,0,0-7.913-1.1,7.93,7.93,0,0,1-7.925-1.079ZM116.355,82.635l25.27,19.634-19.634,25.268L96.721,107.9ZM100.9,50.366l12.634,9.818L74.27,110.721,61.636,100.9,95.991,56.689l0-.005,0-.007ZM46.184,68.635A16,16,0,0,1,65.818,43.367l12.634,9.817L58.819,78.452ZM32,224c0-35.607,11.372-70.124,32.953-100.256l5.817,4.52A8,8,0,0,0,82,126.854l4.908-6.316,63.9,49.649C105.039,196.941,80,241.188,80,296a191.126,191.126,0,0,0,8.563,55.5C52.3,316.576,32,271.456,32,224ZM366.909,421.607C335.307,458.717,294.882,480,256,480s-79.307-21.283-110.909-58.393C114.352,385.512,96,338.556,96,296c0-50.995,24.3-91.722,68.526-115.15l10.819,8.407a24.08,24.08,0,0,0,19.016,4.644l11.161,8.672a23.815,23.815,0,0,0,14.677,5.053,24.665,24.665,0,0,0,3.037-.19,24,24,0,0,0,11.737-42.766l-4.255-3.306A232.928,232.928,0,0,1,256,160c44.9,0,85.31,12.588,113.786,35.444C400.02,219.711,416,254.482,416,296,416,338.556,397.648,385.512,366.909,421.607Zm56.527-70.1A191.147,191.147,0,0,0,432,296c0-46.538-18.05-85.624-52.2-113.033-24.279-19.487-56.174-32.179-91.9-36.9,13.177-10.379,24.49-24.051,30.456-31.857,19.892-26.022,29.509-48.635,32.542-64.1C427.1,80.784,480,147.191,480,224,480,271.312,459.674,316.555,423.436,351.506Z"/><path d="M352,280a8,8,0,0,0-16,0,8,8,0,0,1-16,0,8,8,0,0,0-16,0,24,24,0,0,0,48,0Z"/><path d="M208,280a8,8,0,0,0-16,0,8,8,0,0,1-16,0,8,8,0,0,0-16,0,24,24,0,0,0,48,0Z"/><path d="M315.207,352.671a8,8,0,0,0-10.536,4.122C304.552,357.065,292.348,384,256,384c-35.867,0-48.13-26.017-48.687-27.242a8,8,0,0,0-14.642,6.449C193.328,364.709,209.305,400,256,400s62.672-35.291,63.329-36.793A8,8,0,0,0,315.207,352.671Z"/><path d="M240,336h32a8,8,0,0,0,0-16H248V296a8,8,0,0,0-16,0v32A8,8,0,0,0,240,336Z"/><path d="M152,320a24,24,0,1,0,24,24A24.027,24.027,0,0,0,152,320Zm0,32a8,8,0,1,1,8-8A8.009,8.009,0,0,1,152,352Z"/><path d="M360,320a24,24,0,1,0,24,24A24.028,24.028,0,0,0,360,320Zm0,32a8,8,0,1,1,8-8A8.009,8.009,0,0,1,360,352Z"/><path d="M256,416a24,24,0,1,0,24,24A24.027,24.027,0,0,0,256,416Zm0,32a8,8,0,1,1,8-8A8.009,8.009,0,0,1,256,448Z"/><path d="M256,256a24,24,0,1,0-24-24A24.027,24.027,0,0,0,256,256Zm0-32a8,8,0,1,1-8,8A8.009,8.009,0,0,1,256,224Z"/></svg>
