<?xml version="1.0" encoding="iso-8859-1"?>
<!-- Generator: Adobe Illustrator 19.0.0, SVG Export Plug-In . SVG Version: 6.00 Build 0)  -->
<svg version="1.1" id="Capa_1" xmlns="http://www.w3.org/2000/svg" xmlns:xlink="http://www.w3.org/1999/xlink" x="0px" y="0px"
	 viewBox="0 0 512 512" style="enable-background:new 0 0 512 512;" xml:space="preserve">
<g>
	<path style="fill:#ADE5FF;" d="M132,318.193H75c-23.748,0-43-19.252-43-43V53c0-23.748,19.252-43,43-43h362
		c23.748,0,43,19.252,43,43v222.193c0,23.748-19.252,43-43,43h-56"/>
</g>
<path d="M440,288.19c-0.65,0-1.31-0.06-1.95-0.19s-1.27-0.32-1.87-0.57c-0.61-0.25-1.189-0.56-1.729-0.92
	c-0.551-0.37-1.061-0.78-1.521-1.25c-0.46-0.46-0.88-0.97-1.24-1.52c-0.37-0.54-0.67-1.12-0.92-1.721
	c-0.25-0.609-0.45-1.239-0.569-1.87c-0.131-0.649-0.2-1.31-0.2-1.96s0.069-1.31,0.2-1.949c0.119-0.641,0.319-1.271,0.569-1.87
	c0.25-0.601,0.55-1.19,0.92-1.73c0.36-0.55,0.78-1.059,1.24-1.52c0.46-0.46,0.97-0.88,1.521-1.24c0.54-0.36,1.119-0.67,1.729-0.92
	c0.601-0.25,1.23-0.44,1.87-0.57c1.28-0.26,2.61-0.26,3.9,0c0.64,0.13,1.27,0.32,1.88,0.57c0.6,0.25,1.18,0.56,1.72,0.92
	c0.55,0.36,1.06,0.78,1.52,1.24c0.461,0.46,0.881,0.97,1.24,1.52c0.36,0.54,0.67,1.13,0.92,1.73s0.45,1.23,0.57,1.87
	c0.13,0.64,0.2,1.3,0.2,1.949c0,0.65-0.07,1.31-0.2,1.96c-0.12,0.631-0.32,1.261-0.57,1.87c-0.25,0.601-0.56,1.181-0.92,1.721
	c-0.359,0.55-0.779,1.06-1.24,1.52c-0.46,0.47-0.97,0.88-1.52,1.25c-0.54,0.36-1.12,0.67-1.72,0.92c-0.61,0.25-1.24,0.44-1.88,0.57
	C441.31,288.13,440.649,288.19,440,288.19z"/>
<path style="fill:#ADE5FF;" d="M72,278.193V56c0-1.654,1.346-3,3-3h362c1.654,0,3,1.346,3,3v184.012"/>
<path style="fill:#FFCDAC;" d="M228.427,287.446l-3.378,30.747h-29.77l0,0h0.249l61.257,106.3l59.439-106.3H285.7l-3.362-30.504
	c33.51-11.132,57.679-39.489,57.679-76.734V209.1c-0.151-11.38-2.977-22.92-7.786-34.016c-1.501-3.462-50.739-17.085-43.382-49.24
	l-109.336,39.293c-10.688,24.014-6.981,57.823-6.601,61.018C178.467,255.586,200.014,277.708,228.427,287.446z"/>
<path style="fill:#FFC66C;" d="M256,53L256,53c-65.936,0-119.388,53.452-119.388,119.388v145.805h58.666l0,0h29.77l3.378-30.747
	c-28.413-9.738-49.959-31.86-55.515-61.29c-0.381-3.194-4.087-37.003,6.601-61.018l109.336-39.293
	c-7.357,32.155,41.881,45.777,43.382,49.24c4.809,11.095,7.635,22.635,7.786,34.016v1.854c0,37.245-24.168,65.602-57.679,76.734
	l3.362,30.504h30.524l0,0h59.165V172.388C375.388,106.452,321.936,53,256,53z"/>
<path style="fill:#FF80BD;" d="M256.785,424.492l-61.257-106.3h-40.099c-19.428,0-35.187,15.75-35.187,35.179V502h93.571
	L256.785,424.492z"/>
<path style="fill:#FF5CA6;" d="M391.758,353.371c0-19.429-15.75-35.179-35.179-35.179h-40.107L213.813,502h177.945V353.371z"/>
<path d="M437,0H75C45.776,0,22,23.775,22,53v222.192c0,29.225,23.776,53,53,53h42.927c-4.851,7.199-7.685,15.864-7.685,25.179V502
	c0,5.522,4.477,10,10,10h271.516c5.522,0,10-4.478,10-10V353.371c0-9.315-2.834-17.979-7.684-25.179H437c29.225,0,53-23.775,53-53
	V53C490,23.775,466.225,0,437,0z M146.612,308.192V172.388C146.612,112.071,195.684,63,256,63s109.388,49.071,109.388,109.388
	v135.805h-70.731l-1.529-13.88c15.477-6.501,28.681-16.44,38.505-29.055c12.026-15.441,18.383-34.22,18.383-54.304V209.1
	c0-0.044,0-0.088-0.001-0.132c-0.163-12.317-3.059-25.055-8.609-37.859c-1.814-4.186-5.265-5.834-11.529-8.827
	c-18.311-8.745-34.773-18.942-31.28-34.206c0.815-3.563-0.379-7.288-3.114-9.713c-2.734-2.426-6.577-3.162-10.016-1.929
	L176.13,155.727c-2.566,0.923-4.645,2.854-5.754,5.345c-11.725,26.345-7.872,62.26-7.394,66.268
	c0.027,0.225,0.061,0.449,0.103,0.672c5.546,29.379,25.704,53.56,54.561,65.985l-1.56,14.195L146.612,308.192L146.612,308.192z
	 M256.81,404.508l-43.979-76.315h12.217c5.1,0,9.383-3.838,9.94-8.908l3.378-30.747c0.511-4.65-2.271-9.035-6.698-10.552
	c-25.853-8.859-44.096-28.784-48.865-53.341c-0.389-3.504-3.112-30.955,4.312-51.612l91.836-33.005
	c1.601,7.262,5.715,15.219,14.31,22.98c9.284,8.384,20.996,13.979,27.994,17.32c0.95,0.454,2.024,0.968,2.912,1.407
	c3.758,9.414,5.723,18.63,5.848,27.437v1.782c0,31.063-19.478,56.829-50.831,67.244c-4.476,1.487-7.304,5.898-6.787,10.586
	l3.362,30.504c0.559,5.068,4.841,8.904,9.939,8.904h13.734L256.81,404.508z M130.242,353.371c0-13.884,11.299-25.179,25.187-25.179
	h34.32l55.549,96.395L207.923,492h-35.074v-65.016c0-5.522-4.477-10-10-10s-10,4.478-10,10V492h-22.607V353.371z M381.758,492
	H354.69v-65.016c0-5.522-4.478-10-10-10c-5.523,0-10,4.478-10,10V492H230.852l91.49-163.808h34.237
	c13.884,0,25.179,11.295,25.179,25.179V492z M470,275.192c0,18.196-14.804,33-33,33h-51.612V172.388
	c0-45.979-24.107-86.434-60.346-109.388H430v177.012c0,5.522,4.478,10,10,10s10-4.478,10-10V56c0-7.168-5.832-13-13-13H75
	c-7.169,0-13,5.832-13,13v222.193c0,5.522,4.477,10,10,10s10-4.478,10-10V63h104.958c-36.239,22.954-60.346,63.408-60.346,109.388
	v135.805H75c-18.196,0-33-14.804-33-33V53c0-18.196,14.804-33,33-33h362c18.196,0,33,14.804,33,33V275.192z"/>
<path d="M218.266,212.875c-6.766,0-13.533-2.084-19.307-6.253c-4.478-3.232-5.487-9.483-2.254-13.961
	c3.232-4.479,9.482-5.488,13.961-2.254c4.545,3.281,10.654,3.281,15.201,0c4.478-3.234,10.728-2.224,13.961,2.254
	s2.223,10.729-2.254,13.961C231.799,210.791,225.033,212.875,218.266,212.875z"/>
<path d="M294.945,212.876c-6.767,0-13.533-2.085-19.308-6.254c-4.477-3.232-5.487-9.483-2.254-13.961
	c3.231-4.479,9.481-5.488,13.961-2.254c4.547,3.281,10.654,3.281,15.201,0c4.479-3.234,10.73-2.223,13.961,2.254
	c3.233,4.478,2.224,10.729-2.254,13.961C308.478,210.791,301.712,212.876,294.945,212.876z"/>
<path d="M256,262.373c-6.766,0-13.533-2.084-19.307-6.252c-4.478-3.232-5.488-9.482-2.256-13.961
	c3.232-4.478,9.483-5.486,13.961-2.256c4.547,3.281,10.656,3.281,15.203,0c4.479-3.232,10.73-2.222,13.961,2.256
	c3.232,4.477,2.223,10.729-2.256,13.961C269.533,260.289,262.767,262.373,256,262.373z"/>
<path d="M359.179,393.585h-39.292c-5.522,0-10-4.478-10-10s4.478-10,10-10h39.292c5.522,0,10,4.478,10,10
	S364.701,393.585,359.179,393.585z"/>
<g>
</g>
<g>
</g>
<g>
</g>
<g>
</g>
<g>
</g>
<g>
</g>
<g>
</g>
<g>
</g>
<g>
</g>
<g>
</g>
<g>
</g>
<g>
</g>
<g>
</g>
<g>
</g>
<g>
</g>
</svg>
