<?xml version="1.0" encoding="iso-8859-1"?>
<!-- Generator: Adobe Illustrator 19.0.0, SVG Export Plug-In . SVG Version: 6.00 Build 0)  -->
<svg version="1.1" id="Capa_1" xmlns="http://www.w3.org/2000/svg" xmlns:xlink="http://www.w3.org/1999/xlink" x="0px" y="0px"
	 viewBox="0 0 512 512" style="enable-background:new 0 0 512 512;" xml:space="preserve">
<rect x="37.492" y="239.64" style="fill:#FFC66C;" width="437.02" height="53.3"/>
<path style="fill:#FCB17E;" d="M37.492,292.938v111.153c0,54.074,43.835,97.909,97.909,97.909h241.198
	c54.074,0,97.909-43.835,97.909-97.909V292.938H37.492z"/>
<path style="fill:#F49CC3;" d="M437.593,239.64H74.407c-8.897-7.199-14.591-18.204-14.591-30.545v-1.076
	c0-21.688,17.572-39.269,39.248-39.269h29.57c-21.676,0-39.248-17.581-39.248-39.269s17.572-39.269,39.248-39.269h52.09
	c-2.279-21.329,4.737-43.465,21.077-59.814c10.851-10.857,24.75-17.756,38.772-20.398c-4.339,23.053,1.904,47.941,19.734,65.78
	c6.111,6.114,13.031,10.924,20.415,14.431h102.644c21.676,0,39.248,17.581,39.248,39.269s-17.572,39.269-39.248,39.269h29.57
	c21.676,0,39.248,17.581,39.248,39.269v1.076C452.184,221.436,446.49,232.441,437.593,239.64z"/>
<path d="M338.87,178.48c-0.65,0-1.31-0.06-1.95-0.189c-0.64-0.13-1.27-0.32-1.88-0.57c-0.6-0.25-1.18-0.56-1.72-0.92
	c-0.55-0.36-1.06-0.78-1.52-1.24c-0.46-0.47-0.88-0.98-1.24-1.53c-0.36-0.539-0.671-1.119-0.921-1.72c-0.25-0.6-0.45-1.23-0.57-1.87
	c-0.13-0.65-0.2-1.3-0.2-1.96c0-0.649,0.07-1.3,0.2-1.95c0.12-0.64,0.32-1.27,0.57-1.869c0.25-0.601,0.56-1.181,0.921-1.73
	c0.36-0.54,0.78-1.06,1.24-1.52c1.86-1.86,4.44-2.931,7.07-2.931s5.21,1.07,7.07,2.931c0.46,0.46,0.88,0.979,1.24,1.52
	c0.36,0.55,0.67,1.13,0.92,1.73c0.25,0.6,0.44,1.229,0.57,1.869c0.13,0.65,0.2,1.301,0.2,1.95c0,0.66-0.07,1.311-0.2,1.96
	c-0.13,0.641-0.32,1.27-0.57,1.87c-0.25,0.601-0.56,1.181-0.92,1.72c-0.36,0.551-0.78,1.061-1.24,1.53
	c-0.46,0.46-0.97,0.88-1.52,1.24c-0.54,0.36-1.12,0.67-1.73,0.92c-0.6,0.25-1.23,0.44-1.87,0.57
	C340.18,178.42,339.52,178.48,338.87,178.48z"/>
<path style="fill:#91E0B7;" d="M239.563,412.513c8.256,9.029,16.437,14.601,16.437,14.601s8.18-5.572,16.435-14.6
	c0.792-0.968,1.62-1.913,2.486-2.827c7.518-8.907,14.413-20.548,14.413-33.287c0-28.008-33.334-50.713-33.334-50.713
	s-33.334,22.705-33.334,50.713c0,12.738,6.895,24.38,14.414,33.287C237.944,410.601,238.772,411.545,239.563,412.513z"/>
<g>
	<path style="fill:#36D28F;" d="M313.69,452.493c-23.927,13.544-57.69-0.856-57.69-0.856s5.03-36.36,28.956-49.903
		c23.927-13.544,57.69,0.856,57.69,0.856S337.616,438.949,313.69,452.493z"/>
	<path style="fill:#36D28F;" d="M198.31,452.493c23.927,13.544,57.689-0.856,57.689-0.856s-5.03-36.36-28.956-49.903
		c-23.927-13.544-57.69,0.856-57.69,0.856S174.384,438.949,198.31,452.493z"/>
</g>
<path d="M474.508,229.64h-16.791c2.914-6.353,4.467-13.335,4.467-20.545v-1.075c0-23.971-17.2-43.998-39.9-48.379
	c6.472-8.34,10.33-18.808,10.33-30.159c0-27.167-22.093-49.27-49.248-49.27H283.064c-5.768-2.988-11.036-6.85-15.684-11.501
	c-14.586-14.594-20.934-35.85-16.979-56.861c0.611-3.247-0.421-6.586-2.757-8.921c-2.336-2.337-5.676-3.367-8.921-2.756
	c-16.564,3.12-32.188,11.344-43.994,23.155c-15.289,15.298-23.887,35.573-24.404,56.884h-41.689
	c-27.155,0-49.248,22.103-49.248,49.27c0,11.352,3.857,21.819,10.33,30.159c-22.701,4.381-39.9,24.408-39.9,48.379v1.075
	c0,7.21,1.553,14.192,4.467,20.545H37.492c-5.523,0-10,4.478-10,10v164.451C27.492,463.592,75.899,512,135.401,512h241.198
	c59.501,0,107.909-48.408,107.909-107.909V239.64C484.508,234.117,480.031,229.64,474.508,229.64z M69.815,209.095v-1.075
	c0-16.14,13.121-29.27,29.248-29.27h17.111c0.025,0,0.051,0.001,0.076,0.001h183.308c5.523,0,10-4.478,10-10s-4.477-10-10-10
	H128.711c-0.026,0-0.051-0.001-0.076-0.001c-16.128,0-29.248-13.13-29.248-29.269c0-16.14,13.121-29.27,29.248-29.27h52.089
	c2.837,0,5.541-1.205,7.437-3.315c1.897-2.109,2.808-4.926,2.506-7.747c-2.052-19.214,4.584-38.052,18.207-51.683
	c5.776-5.779,12.762-10.432,20.374-13.651c-0.091,22.142,8.388,43.428,23.986,59.034c6.788,6.791,14.592,12.308,23.197,16.395
	c1.341,0.638,2.807,0.968,4.291,0.968h102.644c16.128,0,29.248,13.13,29.248,29.27c0,16.139-13.121,29.269-29.248,29.269
	c-5.523,0-10,4.477-10,10c0,5.522,4.477,10,10,10h29.57c16.127,0,29.249,13.13,29.249,29.27v1.075
	c0,7.764-3.035,15.087-8.424,20.545H78.239C72.85,224.182,69.815,216.859,69.815,209.095z M47.492,249.64h417.017v33.298H47.492
	V249.64z M464.508,404.091c0,48.474-39.436,87.909-87.909,87.909H135.401c-48.473,0-87.909-39.435-87.909-87.909V302.938h417.017
	v101.153H464.508z"/>
<path d="M193.384,461.195c9.358,5.298,19.743,7.077,29.477,7.076c14.154-0.001,26.926-3.764,33.138-5.944
	c6.211,2.18,18.983,5.944,33.139,5.944c9.732,0,20.121-1.779,29.477-7.076c27.908-15.797,33.703-55.551,33.936-57.235
	c0.618-4.469-1.833-8.799-5.983-10.568c-1.241-0.529-24.79-10.374-48.403-6.562c0.777-3.485,1.168-6.964,1.168-10.43
	c0-32.917-36.165-57.929-37.705-58.978c-3.397-2.314-7.862-2.314-11.259,0c-1.54,1.049-37.705,26.061-37.705,58.978
	c0,3.466,0.391,6.945,1.168,10.43c-23.612-3.812-47.163,6.034-48.403,6.563c-4.15,1.77-6.601,6.1-5.982,10.568
	C159.681,405.645,165.477,445.398,193.384,461.195z M330.973,409.177c-2.745,10.134-9.137,27.214-22.21,34.614
	c-13.159,7.447-31.016,4.14-41.09,1.259c2.131-7.869,6.462-19.927,14.413-28.388c0.063-0.065,0.126-0.132,0.188-0.199
	c2.241-2.353,4.767-4.418,7.608-6.027C303.042,402.987,320.898,406.297,330.973,409.177z M255.999,338.307
	c9.503,8.05,23.335,23.037,23.335,38.093c0,10.377-6.555,20.322-12.055,26.837c-0.006,0.007-0.011,0.014-0.017,0.021
	c-4.675,5.053-8.365,10.776-11.262,16.447c-2.896-5.669-6.585-11.39-11.258-16.442c-0.007-0.009-0.014-0.017-0.021-0.026
	c-5.499-6.516-12.055-16.46-12.055-26.837C232.666,361.341,246.504,346.35,255.999,338.307z M222.118,410.436
	c2.735,1.548,5.176,3.51,7.352,5.737c0.239,0.28,0.49,0.544,0.752,0.792c7.809,8.449,12.038,20.283,14.123,28.053
	c-10.101,2.862-28.035,6.175-41.108-1.227c-13.17-7.455-19.521-24.49-22.234-34.606
	C191.079,406.301,208.951,402.982,222.118,410.436z"/>
<g>
</g>
<g>
</g>
<g>
</g>
<g>
</g>
<g>
</g>
<g>
</g>
<g>
</g>
<g>
</g>
<g>
</g>
<g>
</g>
<g>
</g>
<g>
</g>
<g>
</g>
<g>
</g>
<g>
</g>
</svg>
