<svg id="Capa_1" enable-background="new 0 0 512 512" height="512" viewBox="0 0 512 512" width="512" xmlns="http://www.w3.org/2000/svg"><g><g><path d="m66.163 40.383v431.233h369.673v-431.233z" fill="#fff3e4"/><path d="m494.31 69.26v373.48c0 17.06-6.91 32.5-18.09 43.67l-45.973-12.191-5.937-39.719v-357-37.117l51.91-14.794c11.18 11.171 18.09 26.611 18.09 43.671z" fill="#e3986d"/><g fill="#ffe9cc"><path d="m67.998 40.383h-1.835v7.992c.588-2.68 1.199-5.344 1.835-7.992z"/><path d="m66.163 281.449v190.167h124.441c-59.634-47.946-103.948-114.17-124.441-190.167z"/></g><path d="m87.69 77.5v357 38.8l-51.91 13.11c-11.18-11.17-18.09-26.61-18.09-43.67v-373.48c0-17.06 6.91-32.5 18.09-43.67l44.527 12.082z" fill="#e3986d"/><path d="m53.549 185.766c0-53.853 4.066-104.993 15.852-151.054l-33.621-9.122c-11.18 11.17-18.09 26.61-18.09 43.67v373.48c0 17.06 6.91 32.5 18.09 43.67l51.91-13.11v-38.8-94.043c-21.907-47-34.141-99.417-34.141-154.691z" fill="#de8957"/><path d="m476.22 25.59-51.91 51.91h-336.62l-51.91-51.91c11.17-11.18 26.61-18.09 43.66-18.09h353.12c17.05 0 32.49 6.91 43.66 18.09z" fill="#e8a882"/><path d="m129.153 251.649c0-69.943 46.903-126.847 116.847-126.847 16.61 0 136.847-49.763 136.847 126.847z" fill="#5c586f"/><path d="m181.202 228.414c0-40.782 17.985-77.36 46.451-102.248-59.675 9.016-98.5 61.85-98.5 125.483h54.038c-1.303-7.551-1.989-15.312-1.989-23.235z" fill="#4f4c5f"/><path d="m346.66 285.764c.395.013.789.03 1.187.03 19.962 0 36.145-16.182 36.145-36.145 0-19.962-16.182-36.145-36.145-36.145-.928 0-1.845.046-2.756.115z" fill="#ffbd86"/><path d="m152.731 434.5c0-74.118 48.384-103.179 48.384-103.179h109.768s48.384 29.062 48.384 103.179z" fill="#5c586f"/><path d="m222.569 321.32-13.37 32.917c-5.705 14.045 2.663 29.937 17.518 32.961.238.048.477.095.717.14 14.871 2.786 28.565-8.827 28.565-23.957l22.152-8.845-22.151-16.05z" fill="#ff889e"/><path d="m289.431 321.32 13.37 32.917c5.705 14.045-2.663 29.937-17.518 32.961-.238.048-.477.095-.717.14-14.872 2.786-28.566-8.827-28.566-23.956v-24.896z" fill="#ff748f"/><path d="m346.114 216.106c-3.684-9.332-12.663-15.537-22.695-15.423-43.018.491-91.884-19.495-129.777-15.04-6.724.791-12.755 4.506-16.674 10.027-11.62 16.373-18.283 36.511-17.79 58.23 1.176 51.822 43.622 93.871 95.452 94.586 54.114.747 98.215-42.895 98.215-96.837.001-12.549-2.386-24.539-6.731-35.543z" fill="#fed2a4"/><path d="m256 285.941c-16.139 20.174-39.918 11.813-52.46 5.188-3.042-1.607-3.258-5.831-.44-7.803 7.189-5.03 11.375-16.045 17.313-21.579 9.226-8.598 25.12-13.822 35.586-4.332 10.467-9.49 26.361-4.267 35.586 4.332 5.938 5.534 10.124 16.549 17.313 21.579 2.819 1.972 2.602 6.196-.44 7.803-12.54 6.625-36.319 14.985-52.458-5.188z" fill="#5c586f"/><path d="m476.22 486.41c-11.17 11.18-26.61 18.09-43.66 18.09h-353.12c-17.05 0-32.49-6.91-43.66-18.09l51.91-51.91h336.62z" fill="#e8a882"/><path d="m253.506 348.456c-43.004-22.783-72.304-67.987-72.304-120.042 0-14.366 2.238-28.207 6.373-41.203-4.226 1.726-7.915 4.666-10.607 8.459-3.966 5.587-7.337 11.622-10.061 18l.001-.05c-.911-.068-1.828-.115-2.756-.115-19.962 0-36.145 16.183-36.145 36.145s16.182 36.145 36.145 36.145c.398 0 .792-.017 1.187-.03l.003-.121c13.568 35.904 47.956 61.791 88.164 62.812z" fill="#ffbd86"/><g fill="#e3986d"><path d="m77.482 7.549c-16.27.508-30.962 7.291-41.702 18.041l29.057 29.057c3.317-16.29 7.482-32.022 12.645-47.098z"/><path d="m150.849 434.5h-63.159l-51.91 51.91c11.17 11.18 26.61 18.09 43.66 18.09h159.484c-32.875-18.731-62.569-42.401-88.075-70z"/></g></g><g><path d="m79.44 512h353.12c38.221 0 69.25-30.968 69.25-69.26v-373.48c0-18.505-7.202-35.894-20.278-48.964-.002-.002-.004-.005-.006-.007-.001-.001-.003-.002-.004-.004 0 0-.001 0-.001-.001-.001 0-.001-.001-.002-.002-13.072-13.079-30.458-20.282-48.959-20.282h-353.12c-18.501 0-35.888 7.203-48.959 20.282-.001 0-.001.001-.002.002 0 0-.001 0-.001.001-.001.001-.003.002-.004.004-.002.002-.004.004-.006.007-13.076 13.07-20.278 30.458-20.278 48.964v373.48c0 38.221 30.958 69.26 69.25 69.26zm75.254-235.312c-11.161-3.916-19.186-14.558-19.186-27.04 0-12.639 8.375-23.812 20.348-27.412-5.104 17.417-5.627 36.411-1.162 54.452zm-12.327-64.903c5.632-18.794 15.281-35.56 28.255-48.719 19.842-20.125 45.907-30.763 75.377-30.763 2.812 0 6.435-.754 11.919-1.897 19.186-3.996 54.899-11.435 81.67 9.628 17.889 14.075 29.144 38.942 33.588 74.107-7.158-5.12-15.57-7.879-24.161-8.121-10.202-13.851-25.781-12.861-25.681-12.837-1.809.021-3.637-.008-5.476-.062-17.686-.509-36.638-4.237-55.031-7.865-22.761-4.489-48.025-9.653-70.06-7.063-8.77 1.032-16.782 5.904-21.915 13.135-.025.035-.047.071-.072.106-3.308 4.672-6.197 9.558-8.665 14.617-7.083.358-13.878 2.363-19.748 5.734zm213.784 10.481c12.427 3.82 20.34 15.159 20.34 27.383 0 12.469-8.007 23.101-19.15 27.026 4.237-17.305 4.165-35.592-1.19-54.409zm-183.71 60.977c-.028-.084-.051-.171-.083-.255-13.575-35.935 1.273-65.521 1.448-66.375 2.422-5.672 7.506-15.034 10.979-18.614 2.632-2.713 6.058-4.476 9.733-4.908 21.275-2.497 48.059 3.482 69.475 7.682 19.777 3.885 40.071 7.629 59.512 7.409.019 0 .037.001.055.001 6.937-.06 13.124 4.45 15.577 10.676 4.12 10.434 6.208 21.465 6.208 32.789 0 11.783-2.083 21.129-5.751 31.624-22.866 60.537-100.434 77.308-146.407 31.757-9.245-9.16-16.257-19.99-20.746-31.786zm123.411 73.817c3.955 9.738-1.858 20.712-12.067 22.79l-.601.118c-10.195 1.909-19.685-6.09-19.685-16.585v-7.651c9.9-.693 19.815-2.82 29.231-6.355zm-79.704 0 3.147-7.749c9.613 3.633 19.642 5.75 29.205 6.419v7.652c0 10.537-9.536 18.486-19.669 16.588l-.617-.121c-10.22-2.079-16.017-13.061-12.066-22.789zm-14.878-16.651c1.448.899 2.915 1.761 4.401 2.585l-3.42 8.421c-7.485 18.428 3.549 39.179 22.973 43.133 12.118 2.472 23.492-1.976 30.776-10.616 7.216 8.559 18.518 13.094 30.778 10.616 19.415-3.952 30.459-24.698 22.972-43.133l-3.383-8.329c1.51-.834 3-1.707 4.47-2.619 10.387 8.062 38.278 34.424 40.756 86.532h-25.448v-25.668c0-4.142-3.358-7.5-7.5-7.5s-7.5 3.358-7.5 7.5v25.669h-110.29v-25.668c0-4.142-3.358-7.5-7.5-7.5s-7.5 3.358-7.5 7.5v25.668h-25.451c1.201-25.675 8.634-48.138 22.141-66.862 7.204-9.986 14.485-16.428 18.725-19.729zm231.29 156.591h-353.12c-11.964 0-23.332-3.844-32.694-10.949 13.354-13.355 27.92-27.921 44.05-44.051h330.407l44.051 44.051c-9.362 7.104-20.731 10.949-32.694 10.949zm-353.12-482h353.12c11.964 0 23.332 3.844 32.694 10.949l-44.051 44.051h-330.407l-44.05-44.051c9.362-7.105 20.73-10.949 32.694-10.949zm-54.25 54.26c0-11.969 3.844-23.341 10.949-32.704l44.051 44.05v239.888c0 4.143 3.356 7.5 7.5 7.5 4.147 0 7.5-3.362 7.5-7.5v-235.494h321.62v49.453c0 4.142 3.358 7.5 7.5 7.5s7.5-3.358 7.5-7.5v-53.847l44.051-44.051c7.105 9.363 10.949 20.735 10.949 32.704v373.48c0 11.969-3.844 23.341-10.949 32.704l-44.051-44.051v-266.94c0-4.142-3.358-7.5-7.5-7.5s-7.5 3.358-7.5 7.5v262.548h-50.228c-1.259-28.316-9.646-54.111-24.484-74.972-6.716-9.442-13.583-16.242-18.75-20.67 2.03-1.721 4.006-3.524 5.921-5.413 9.709-9.576 17.297-20.708 22.549-32.839 22.21-2.014 39.673-20.729 39.673-43.456 0-3.751-.476-7.392-1.37-10.868-1.86-53.264-15.735-90.456-41.257-110.536-32.262-25.383-73.963-16.698-94.004-12.524-3.56.741-7.594 1.582-8.86 1.582-33.576 0-63.334 12.183-86.059 35.232-21.336 21.641-34.684 51.724-37.645 84.777-1.156 3.915-1.787 8.053-1.787 12.337 0 22.753 17.505 41.485 39.753 43.462 5.238 12.018 12.774 23.067 22.369 32.575 1.965 1.947 3.997 3.803 6.085 5.574-14.149 12.036-41.012 41.813-43.322 95.74h-50.204v-76.505c0-4.142-3.358-7.5-7.5-7.5s-7.5 3.358-7.5 7.5v80.898l-44.051 44.051c-7.105-9.363-10.949-20.735-10.949-32.704z"/><path d="m201.116 256.283c4.142 0 7.5-3.358 7.5-7.5v-10.546c0-4.142-3.358-7.5-7.5-7.5s-7.5 3.358-7.5 7.5v10.546c0 4.142 3.358 7.5 7.5 7.5z"/><path d="m310.884 256.283c4.142 0 7.5-3.358 7.5-7.5v-10.546c0-4.142-3.358-7.5-7.5-7.5s-7.5 3.358-7.5 7.5v10.546c0 4.142 3.358 7.5 7.5 7.5z"/><path d="m198.8 277.181c-3.497 2.446-5.426 6.441-5.161 10.686.263 4.218 2.655 7.917 6.398 9.894 10.57 5.583 20.688 8.35 29.924 8.35 9.863 0 18.72-3.156 26.039-9.407 14.174 12.104 34.105 12.604 55.963 1.057 3.743-1.977 6.134-5.676 6.397-9.894.265-4.245-1.665-8.239-5.161-10.686-2.872-2.009-5.571-6.14-8.181-10.135-2.491-3.812-5.066-7.754-8.319-10.786-10.666-9.94-27.59-15.293-40.7-8.021-13.11-7.271-30.034-1.919-40.701 8.021-3.252 3.031-5.828 6.973-8.318 10.785-2.609 3.996-5.308 8.126-8.18 10.136zm20.739-1.931c2.092-3.203 4.069-6.228 5.988-8.017 6.171-5.751 18.142-10.875 25.436-4.262 2.858 2.592 7.217 2.592 10.075 0 7.295-6.614 19.265-1.488 25.435 4.262 1.919 1.789 3.896 4.814 5.988 8.017 2.436 3.728 5.117 7.832 8.535 11.198-12.511 5.701-28.237 8.436-39.14-5.192-1.423-1.779-3.578-2.814-5.856-2.814s-4.433 1.035-5.856 2.814c-10.903 13.628-26.631 10.893-39.14 5.191 3.418-3.366 6.099-7.469 8.535-11.197z"/></g></g></svg>