<svg height="512pt" viewBox="-26 0 512 512.00025" width="512pt" xmlns="http://www.w3.org/2000/svg"><path d="m452.523438 43.089844h-444.921876v461.304687h444.921876zm0 0" fill="#ff8040"/><path d="m48.15625 83.644531h363.8125v380.199219h-363.8125zm0 0" fill="#e4e4ef"/><path d="m364.890625 420.007812c-24.613281-77.945312 22.964844-111.046874 10.226563-205.320312-12.742188-94.273438-90.878907-100.355469-145.054688-100.355469s-132.3125 6.082031-145.054688 100.355469c-12.738281 94.273438 34.839844 127.375 10.226563 205.320312" fill="#ffbf3e"/><path d="m143.519531 214.6875c-7.601562 94.273438 26.828125 127.371094 12.144531 205.320312h-60.425781c24.613281-77.949218-22.96875-111.046874-10.226562-205.320312 12.621093-93.390625 89.421875-100.238281 143.523437-100.347656-32.238281.203125-77.535156 7.542968-85.015625 100.347656zm0 0" fill="#e8a328"/><path d="m344.085938 257.152344v48.84375c0 55.5625-39.75 101.839844-92.363282 111.957031-7.007812 1.351563-14.253906 2.054687-21.65625 2.054687-62.96875 0-114.011718-51.042968-114.011718-114.011718v-45.445313s24.414062-4.792969 43.304687-19.273437c11.898437-9.121094 21.597656-22.082032 21.625-40.121094 0 2.097656 1.570313 55.996094 163.101563 55.996094zm0 0" fill="#e8b182"/><path d="m344.085938 257.152344v48.84375c0 55.5625-39.75 101.839844-92.363282 111.957031-52.617187-10.117187-92.363281-56.394531-92.363281-111.957031v-64.71875c11.898437-9.121094 21.597656-22.082032 21.625-40.121094 0 2.097656 1.570313 55.996094 163.101563 55.996094zm0 0" fill="#ffd0a6"/><path d="m193.304688 333.015625c-2.96875 2.96875-2.96875 7.78125 0 10.75 10.136718 10.136719 23.449218 15.203125 36.761718 15.203125s26.625-5.066406 36.761719-15.203125c2.96875-2.96875 2.96875-7.78125 0-10.75-2.96875-2.972656-7.785156-2.972656-10.753906 0-14.339844 14.339844-37.675781 14.339844-52.015625 0-2.96875-2.972656-7.785156-2.972656-10.753906 0zm0 0"/><path d="m147.230469 282.15625c-2.96875 2.972656-2.96875 7.785156 0 10.753906 2.96875 2.972656 7.785156 2.96875 10.753906 0 5.300781-5.300781 12.347656-8.21875 19.847656-8.21875 7.496094 0 14.542969 2.917969 19.84375 8.21875 1.484375 1.484375 3.433594 2.226563 5.378907 2.226563 1.945312 0 3.890624-.742188 5.375-2.226563 2.96875-2.96875 2.96875-7.78125 0-10.753906-8.171876-8.171875-19.039063-12.671875-30.597657-12.671875-11.558593 0-22.425781 4.5-30.601562 12.671875zm0 0"/><path d="m262.453125 292.910156c5.300781-5.300781 12.347656-8.21875 19.84375-8.21875s14.546875 2.917969 19.847656 8.21875c1.484375 1.484375 3.429688 2.226563 5.375 2.226563 1.945313 0 3.894531-.742188 5.378907-2.226563 2.96875-2.96875 2.96875-7.78125 0-10.753906-8.175782-8.171875-19.042969-12.671875-30.601563-12.671875s-22.425781 4.5-30.597656 12.671875c-2.972657 2.972656-2.972657 7.785156 0 10.753906 2.96875 2.972656 7.78125 2.96875 10.753906 0zm0 0"/><path d="m180.988281 193.523438c-.003906 0-.003906 0-.003906 0-4.023437 0-7.316406 3.152343-7.585937 7.109374v.011719.011719.007812.003907.007812.007813.003906.007812.003907.007812.003907.007812.011719.011719.011718.003906.007813.011719.011718.003907.007812.003907.007812.003906.007813.003906.007813.003906.007812.003906.007813.007813.003906.007812.003906.011719.011719c-.003907.078125-.003907.15625-.003907.234375-.019531 13.15625-6.292969 24.628906-18.648437 34.097656-17.175782 13.167969-39.925782 17.800781-40.144532 17.84375-3.566406.699219-6.136718 3.828125-6.136718 7.460938v45.449219c0 67.058593 54.554687 121.617187 121.613281 121.617187 7.777344 0 15.546875-.738281 23.09375-2.195313 57.09375-10.976562 98.53125-61.199218 98.53125-119.421874v-48.84375c0-4.199219-3.40625-7.605469-7.605469-7.605469-152.398437 0-155.484375-47.953125-155.496094-48.390625v-.058594c-.015624-4.195312-3.417968-7.566406-7.613281-7.570312zm155.492188 71.191406v41.28125c0 50.941406-36.25 94.886718-86.199219 104.488281-6.601562 1.273437-13.40625 1.917969-20.214844 1.917969-58.675781 0-106.410156-47.734375-106.410156-106.40625v-39.480469c8.9375-2.457031 25.976562-8.199219 40.328125-19.203125 8.84375-6.777344 15.394531-14.65625 19.503906-23.351562 15.484375 17.894531 54.566407 39.6875 152.992188 40.753906zm0 0"/><path d="m382.652344 213.667969c-5.960938-44.089844-26.566406-74.835938-61.25-91.375-28.761719-13.714844-62.3125-15.566407-91.339844-15.566407s-62.578125 1.851563-91.339844 15.566407c-34.683594 16.539062-55.289062 47.285156-61.25 91.375-6.246094 46.214843 1.65625 78.582031 8.625 107.136719 7.601563 31.136718 14.164063 58.027343 1.886719 96.914062-1.265625 4.003906.957031 8.273438 4.960937 9.539062 4.003907 1.261719 8.277344-.957031 9.539063-4.960937 13.558594-42.941406 6.191406-73.132813-1.613281-105.101563-6.972656-28.574218-14.1875-58.125-8.328125-101.492187 5.304687-39.226563 22.546875-65.292969 52.726562-79.683594 26.023438-12.410156 57.46875-14.085937 84.792969-14.085937s58.765625 1.671875 84.792969 14.085937c30.175781 14.390625 47.421875 40.457031 52.722656 79.683594 5.859375 43.367187-1.351563 72.917969-8.328125 101.492187-7.800781 31.96875-15.171875 62.160157-1.613281 105.101563 1.023437 3.242187 4.019531 5.316406 7.25 5.316406.757812 0 1.53125-.117187 2.292969-.355469 4.003906-1.265624 6.222656-5.535156 4.960937-9.539062-12.277344-38.886719-5.714844-65.777344 1.882813-96.914062 6.972656-28.554688 14.875-60.921876 8.628906-107.136719zm0 0"/><path d="m294.65625 317.734375c0 4.203125 3.402344 7.605469 7.601562 7.605469h14.15625c4.199219 0 7.605469-3.402344 7.605469-7.605469 0-4.199219-3.40625-7.601563-7.605469-7.601563h-14.15625c-4.199218 0-7.601562 3.402344-7.601562 7.601563zm0 0"/><path d="m157.875 310.132812h-14.152344c-4.199218 0-7.605468 3.402344-7.605468 7.601563 0 4.203125 3.40625 7.605469 7.605468 7.605469h14.152344c4.199219 0 7.605469-3.402344 7.605469-7.605469 0-4.199219-3.402344-7.601563-7.605469-7.601563zm0 0"/><path d="m452.523438 35.488281h-144.207032l-75.054687-34.785156c-2.027344-.9375-4.367188-.9375-6.394531 0l-75.054688 34.785156h-144.207031c-4.199219 0-7.605469 3.402344-7.605469 7.601563v380.46875c0 4.199218 3.40625 7.605468 7.605469 7.605468s7.601562-3.40625 7.601562-7.605468v-372.863282h429.710938v446.097657h-429.710938v-42.816407c0-4.199218-3.402343-7.601562-7.601562-7.601562s-7.605469 3.402344-7.605469 7.601562v50.417969c0 4.203125 3.40625 7.605469 7.605469 7.605469h444.917969c4.199218 0 7.601562-3.402344 7.601562-7.605469v-461.304687c0-4.199219-3.402344-7.601563-7.601562-7.601563zm-222.460938-19.503906 42.085938 19.503906h-84.167969zm0 0"/><path d="m330.574219 76.042969h-282.417969c-4.199219 0-7.601562 3.402343-7.601562 7.601562v380.199219c0 4.199219 3.402343 7.601562 7.601562 7.601562h363.8125c4.199219 0 7.605469-3.402343 7.605469-7.601562v-380.199219c0-4.199219-3.40625-7.601562-7.605469-7.601562h-50.976562c-4.199219 0-7.605469 3.402343-7.605469 7.601562s3.40625 7.605469 7.605469 7.605469h43.371093v364.988281h-348.601562v-364.988281h274.8125c4.199219 0 7.605469-3.40625 7.605469-7.605469s-3.40625-7.601562-7.605469-7.601562zm0 0"/></svg>